<?xml version="1.0" encoding="iso-8859-1"?>
<!-- Generator: Adobe Illustrator 19.0.0, SVG Export Plug-In . SVG Version: 6.00 Build 0)  -->
<svg version="1.1" id="Capa_1" xmlns="http://www.w3.org/2000/svg" xmlns:xlink="http://www.w3.org/1999/xlink" x="0px" y="0px"
	 viewBox="0 0 512 512" style="enable-background:new 0 0 512 512;" xml:space="preserve">
<g>
	<path style="fill:#F7BB8F;" d="M127.893,153.301c0,14.152,11.47,25.621,25.621,25.621h8.54V127.68h-8.54
		C139.363,127.68,127.893,139.15,127.893,153.301z"/>
	<path style="fill:#F7BB8F;" d="M358.486,127.68h-8.54v51.243h8.54c14.152,0,25.621-11.47,25.621-25.621
		S372.637,127.68,358.486,127.68z"/>
</g>
<path style="fill:#87CED9;" d="M358.486,315.57H153.515c-37.732,0-68.324,30.592-68.324,68.324V512h341.618V383.893
	C426.809,346.162,396.217,315.57,358.486,315.57z"/>
<polygon style="fill:#4398D1;" points="281.621,315.57 230.379,315.57 247.46,349.732 230.379,460.758 281.621,460.758 
	264.541,349.732 "/>
<rect x="213.298" y="255.787" style="fill:#FEC9A3;" width="85.404" height="59.783"/>
<path style="fill:#EBEBEB;" d="M358.486,315.57h-25.621L256,418.055L179.136,315.57h-25.621c-37.732,0-68.324,30.592-68.324,68.324
	V512h341.618V383.893C426.809,346.162,396.217,315.57,358.486,315.57z"/>
<path style="fill:#F7BB8F;" d="M213.298,255.787v32.368c26.8,13.776,58.605,13.776,85.404,0v-32.368H213.298z"/>
<path style="fill:#FEC9A3;" d="M256,25.195L256,25.195c51.883,0,93.945,42.062,93.945,93.945v68.324
	c0,51.883-42.062,93.945-93.945,93.945l0,0c-51.883,0-93.945-42.062-93.945-93.945V119.14C162.055,67.256,204.117,25.195,256,25.195
	z"/>
<path style="fill:#75462E;" d="M307.243,170.382c-9.437,0-17.081-7.644-17.081-17.081s7.644-17.081,17.081-17.081
	s17.081,7.644,17.081,17.081S316.68,170.382,307.243,170.382z"/>
<g>
	<path style="fill:#F0B184;" d="M264.541,204.544h-25.621c-2.69,0-5.218-1.264-6.832-3.416c-1.589-2.127-2.092-4.877-1.366-7.43
		l17.081-59.783l16.398,4.612l-13.921,48.937h14.263L264.541,204.544L264.541,204.544z"/>
	<path style="fill:#F0B184;" d="M248.912,238.706h-9.992v-17.081h9.992c13.212,0.026,25.878-5.235,35.187-14.604l12.127,12.127
		C283.697,231.728,266.659,238.766,248.912,238.706z"/>
</g>
<g>
	<path style="fill:#75462E;" d="M204.757,170.382c-9.437,0-17.081-7.644-17.081-17.081s7.644-17.081,17.081-17.081
		s17.081,7.644,17.081,17.081S214.195,170.382,204.757,170.382z"/>
	<path style="fill:#75462E;" d="M307.243,59.356L307.243,59.356l-7.857,4.526c-34.034,19.404-72.534,29.618-111.709,29.635l0,0
		l-25.621,34.162h-8.54V76.437c0-37.732,30.592-68.324,68.324-68.324h69.348c14.698,0.026,27.739,9.446,32.368,23.401l0.769,2.221
		l0,0c18.866,0,34.162,15.296,34.162,34.162v59.783h-8.54C349.945,127.68,315.783,93.518,307.243,59.356z"/>
</g>
<path style="fill:#E0E0E0;" d="M85.191,512h341.618V383.893c0.128-2.246,0.128-4.501,0-6.747
	c-87.71,83.611-256.726,107.866-341.618,114.954L85.191,512L85.191,512z"/>
<g>
	<circle style="fill:#4398D1;" cx="162.055" cy="435.136" r="25.621"/>
	<rect x="153.515" y="315.57" style="fill:#4398D1;" width="17.081" height="119.566"/>
	<path style="fill:#4398D1;" d="M358.486,393.203V315.57h-17.081v77.633c-24.639,4.168-42.677,25.485-42.702,50.474v17.081
		c0,4.714,3.826,8.54,8.54,8.54h25.621v-17.081h-17.081v-8.54c0-18.866,15.296-34.162,34.162-34.162
		c18.866,0,34.162,15.296,34.162,34.162v8.54h-17.081v17.081h25.621c4.714,0,8.54-3.826,8.54-8.54v-17.081
		C401.162,418.696,383.125,397.37,358.486,393.203z"/>
</g>
<path d="M93.732,383.893c0-33.017,26.766-59.783,59.783-59.783l0,0v78.06c-18.268,4.714-29.251,23.35-24.537,41.618
	c4.714,18.268,23.35,29.251,41.618,24.537c18.268-4.714,29.251-23.35,24.537-41.618c-3.109-12.034-12.503-21.428-24.537-24.537
	v-78.06h4.27l74.302,99.069c2.827,3.775,8.182,4.535,11.957,1.708c0.649-0.487,1.221-1.059,1.708-1.708l74.302-99.069h4.27v69.092
	c-24.639,4.168-42.677,25.485-42.702,50.474v17.081c0,4.714,3.826,8.54,8.54,8.54h25.621v-17.081h-17.081v-8.54
	c0-18.866,15.296-34.162,34.162-34.162c18.866,0,34.162,15.296,34.162,34.162v8.54h-17.081v17.081h25.621
	c4.714,0,8.54-3.826,8.54-8.54v-17.081c-0.026-24.989-18.063-46.306-42.702-50.474V324.11c33.017,0,59.783,26.766,59.783,59.783l0,0
	V512h17.081V383.894c0-42.455-34.409-76.864-76.864-76.864l0,0h-51.243v-30.916c31.677-18.285,51.209-52.071,51.243-88.65
	c18.866-0.222,33.974-15.706,33.752-34.572c-0.179-15.27-10.471-28.559-25.211-32.556V67.897
	c0.009-21.214-15.561-39.218-36.553-42.275C323.658,10.01,308.216-0.06,291.187,0h-69.348c-42.455,0-76.864,34.409-76.864,76.864
	v43.898c-17.995,5.671-27.987,24.853-22.316,42.847c4.287,13.613,16.594,23.128,30.857,23.853
	c0.034,36.579,19.566,70.365,51.243,88.65v30.916h-51.243c-42.455,0-76.864,34.409-76.864,76.864l0,0V512h17.081L93.732,383.893
	L93.732,383.893z M179.136,435.136c0,9.437-7.644,17.081-17.081,17.081s-17.081-7.644-17.081-17.081s7.644-17.081,17.081-17.081
	S179.136,425.699,179.136,435.136z M259.246,341.191h-6.491l-8.54-17.081h23.572L259.246,341.191z M225.084,324.11l13.836,27.073
	l-3.331,25.024l-39.371-52.097L225.084,324.11L225.084,324.11z M249.936,395.765l5.039-37.493h2.05l5.039,37.493L256,403.793
	L249.936,395.765z M276.668,376.207l-3.587-25.024l13.836-27.073h28.867L276.668,376.207z M375.566,153.301
	c0,9.437-7.644,17.081-17.081,17.081V136.22C367.923,136.22,375.566,143.864,375.566,153.301z M162.055,76.437
	c0-33.017,26.766-59.783,59.783-59.783h69.348c11.128-0.128,21.069,6.952,24.597,17.508l0.769,2.306
	c1.136,3.365,4.228,5.671,7.772,5.808c14.152,0,25.621,11.47,25.621,25.621v51.243h-4.441
	c-14.997-17.627-25.228-38.791-29.721-61.491c-0.555-2.682-2.366-4.945-4.868-6.064c-2.443-1.247-5.329-1.247-7.772,0l-7.857,4.526
	c-32.753,18.815-69.844,28.764-107.61,28.867c-3.015,0-5.808,1.589-7.345,4.185l-18.277,30.489L162.055,76.437L162.055,76.437z
	 M136.434,153.301c0-9.437,7.644-17.081,17.081-17.081v34.162C144.078,170.382,136.434,162.739,136.434,153.301z M170.596,187.463
	v-48.851l21.949-36.553c38.227-0.786,75.668-10.932,109.062-29.55c7.003,25.152,20.429,48.049,38.944,66.445l0.854,0.854v47.656
	c0,47.169-38.236,85.404-85.405,85.404S170.596,234.632,170.596,187.463z M221.838,283.97c22.077,7.968,46.247,7.968,68.324,0
	v23.059h-68.324L221.838,283.97L221.838,283.97z"/>
<circle cx="307.243" cy="153.301" r="17.081"/>
<path d="M264.541,204.544v-17.081h-14.263l14.263-48.937l-17.081-4.612l-17.081,59.783c-0.726,2.554-0.222,5.304,1.366,7.43
	c1.614,2.152,4.142,3.416,6.832,3.416H264.541z"/>
<path d="M284.098,207.021c-9.309,9.369-21.975,14.63-35.187,14.604h-9.992v17.081h9.992c17.747,0.06,34.785-6.978,47.314-19.558
	L284.098,207.021z"/>
<circle cx="204.757" cy="153.301" r="17.081"/>
<g>
</g>
<g>
</g>
<g>
</g>
<g>
</g>
<g>
</g>
<g>
</g>
<g>
</g>
<g>
</g>
<g>
</g>
<g>
</g>
<g>
</g>
<g>
</g>
<g>
</g>
<g>
</g>
<g>
</g>
</svg>
