<?xml version="1.0" encoding="iso-8859-1"?>
<!-- Generator: Adobe Illustrator 19.0.0, SVG Export Plug-In . SVG Version: 6.00 Build 0)  -->
<svg version="1.1" id="Capa_1" xmlns="http://www.w3.org/2000/svg" xmlns:xlink="http://www.w3.org/1999/xlink" x="0px" y="0px"
	 viewBox="0 0 479.6 479.6" style="enable-background:new 0 0 479.6 479.6;" xml:space="preserve">
<g>
	<g>
		<g>
			<path d="M335.8,287.6h-48v-28.96c29.672-17.131,47.965-48.778,48-83.04c17.672-0.212,31.826-14.709,31.614-32.381
				c-0.171-14.301-9.812-26.752-23.614-30.499V63.6c0.008-19.873-14.574-36.738-34.24-39.6c-6.382-14.624-20.845-24.056-36.8-24
				H207.8c-39.764,0-72,32.235-72,72v41.12c-16.856,5.311-26.215,23.281-20.904,40.137c4.019,12.756,15.547,21.667,28.904,22.343
				c0.035,34.262,18.328,65.909,48,83.04v28.96h-48c-39.765,0-72,32.235-72,72v120h16v-120c0-30.928,25.072-56,56-56v73.12
				c-17.112,4.418-27.402,21.872-22.984,38.984c4.418,17.112,21.872,27.402,38.984,22.984s27.402-21.872,22.984-38.984
				c-2.91-11.272-11.712-20.074-22.984-22.984V303.6h4l69.6,92.8c2.651,3.535,7.665,4.251,11.2,1.6c0.606-0.455,1.145-0.994,1.6-1.6
				l69.6-92.8h4v64.72c-23.077,3.901-39.976,23.876-40,47.28v16c0,4.418,3.582,8,8,8h24v-16h-16v-8c0-17.673,14.327-32,32-32
				c17.673,0,32,14.327,32,32v8h-16v16h24c4.418,0,8-3.582,8-8v-16c-0.024-23.404-16.923-43.379-40-47.28V303.6
				c30.928,0,56,25.072,56,56v120h16v-120C407.8,319.836,375.565,287.6,335.8,287.6z M335.8,127.6c8.837,0,16,7.163,16,16
				s-7.163,16-16,16V127.6z M167.8,407.6c0,8.837-7.163,16-16,16s-16-7.163-16-16s7.163-16,16-16S167.8,398.764,167.8,407.6z
				 M143.8,159.6c-8.837,0-16-7.163-16-16s7.163-16,16-16V159.6z M151.8,71.6c0-30.928,25.072-56,56-56h64.96
				c10.427-0.119,19.738,6.508,23.04,16.4l0.72,2.16c1.061,3.149,3.959,5.315,7.28,5.44c13.255,0,24,10.745,24,24v48h-4.16
				C309.596,95.091,300.011,75.262,295.8,54c-0.52-2.516-2.216-4.629-4.56-5.68c-2.286-1.168-4.994-1.168-7.28,0l-7.36,4.24
				c-30.677,17.625-65.42,26.945-100.8,27.04c-2.825,0-5.439,1.49-6.88,3.92l-17.12,28.56V71.6z M159.8,175.6v-45.76l20.56-34.24
				c35.805-0.733,70.883-10.238,102.16-27.68c6.562,23.557,19.133,45.004,36.48,62.24l0.8,0.8v44.64c0,44.183-35.817,80-80,80
				S159.8,219.783,159.8,175.6z M271.8,266v21.6h-64V266C228.48,273.466,251.12,273.466,271.8,266z M220.68,352.4l-36.88-48.8h27.04
				l12.96,25.36L220.68,352.4z M239.8,378.24l-5.68-7.52l4.72-35.12h1.92l4.72,35.12L239.8,378.24z M242.84,319.6h-6.08l-8-16h22.08
				L242.84,319.6z M259.16,352.4l-3.36-23.44l12.96-25.36h27.04L259.16,352.4z"/>
			<circle cx="287.8" cy="143.6" r="16"/>
			<path d="M247.8,175.6h-13.36l13.36-45.84l-16-4.32l-16,56c-0.678,2.393-0.205,4.965,1.28,6.96c1.511,2.014,3.882,3.2,6.4,3.2
				h24.32V175.6z"/>
			<path d="M266.12,193.92c-8.719,8.779-20.587,13.705-32.96,13.68h-9.36v16h9.36c16.627,0.059,32.587-6.538,44.32-18.32
				L266.12,193.92z"/>
			<circle cx="191.8" cy="143.6" r="16"/>
		</g>
	</g>
</g>
<g>
</g>
<g>
</g>
<g>
</g>
<g>
</g>
<g>
</g>
<g>
</g>
<g>
</g>
<g>
</g>
<g>
</g>
<g>
</g>
<g>
</g>
<g>
</g>
<g>
</g>
<g>
</g>
<g>
</g>
</svg>
